<?xml version="1.0" encoding="UTF-8"?>
<!DOCTYPE svg PUBLIC "-//W3C//DTD SVG 1.1//EN" "http://www.w3.org/Graphics/SVG/1.1/DTD/svg11.dtd">
<svg version="1.1" xmlns="http://www.w3.org/2000/svg" xmlns:xlink="http://www.w3.org/1999/xlink" width="32" height="32"  xml:space="preserve" id="ic_ink_type_marker_on">
    <!-- Generated by PaintCode - http://www.paintcodeapp.com -->
    <path id="ic_ink_type_marker_on-bezier5" stroke="none" fill="rgb(255, 255, 255)" d="M 19.53,7.33 L 10.39,16.47 C 10.39,16.47 16.12,22.2 16.25,22.33 L 25.39,13.19 C 26.21,12.36 26.21,11.02 25.39,10.19 L 22.52,7.33 C 21.69,6.5 20.35,6.5 19.53,7.33 Z M 32,0 C 32,0 32,32 32,32 L 0,32 0,0 32,0 32,0 Z M 32,0" />
    <path id="ic_ink_type_marker_on-bezier2" stroke="rgb(75, 73, 74)" stroke-width="0.85" stroke-linecap="round" stroke-linejoin="round" stroke-miterlimit="10" fill="rgb(255, 255, 255)" d="M 9.62,25.18 L 7.11,23.51 11.03,19.59 13.12,21.68 9.62,25.18 Z M 9.62,25.18" />
    <path id="ic_ink_type_marker_on-bezier3" stroke="rgb(75, 73, 74)" stroke-width="1.13" stroke-linecap="round" stroke-linejoin="round" stroke-miterlimit="10" fill="rgb(255, 255, 255)" d="M 12.22,24.69 L 8.02,20.5 10.39,16.47 16.25,22.33 12.22,24.69 Z M 12.22,24.69" />
    <path id="ic_ink_type_marker_on-bezier4" stroke="rgb(75, 73, 74)" stroke-width="1.13" stroke-linecap="round" stroke-linejoin="round" stroke-miterlimit="10" fill="none" d="M 16.25,22.33 L 10.39,16.47 19.53,7.33 C 20.35,6.5 21.69,6.5 22.52,7.33 L 25.39,10.19 C 26.21,11.02 26.21,12.36 25.39,13.19 L 16.25,22.33 16.25,22.33 Z M 16.25,22.33" />
</svg>
